<?xml version="1.0" standalone="no"?>
<!DOCTYPE svg PUBLIC "-//W3C//DTD SVG 20010904//EN"
 "http://www.w3.org/TR/2001/REC-SVG-20010904/DTD/svg10.dtd">
<svg version="1.0" xmlns="http://www.w3.org/2000/svg"
 width="369.000000pt" height="369.000000pt" viewBox="0 0 369.000000 369.000000"
 preserveAspectRatio="xMidYMid meet">
<metadata>
Created by potrace 1.11, written by Peter Selinger 2001-2013
</metadata>
<g transform="translate(0.000000,369.000000) scale(0.100000,-0.100000)"
fill="#000000" stroke="none">
<path d="M1101 3564 c0 -11 3 -14 6 -6 3 7 2 16 -1 19 -3 4 -6 -2 -5 -13z"/>
<path d="M1128 3561 c4 -9 7 -11 9 -4 3 7 10 10 18 7 7 -3 15 -2 18 3 3 4 -7
8 -23 8 -21 1 -26 -3 -22 -14z"/>
<path d="M1230 3568 c0 -4 15 -5 33 -1 46 8 48 14 4 11 -20 -1 -37 -6 -37 -10z"/>
<path d="M1329 3557 c14 -16 19 -30 15 -43 -6 -18 -6 -18 9 1 13 17 16 18 22
5 6 -18 61 -21 58 -3 -1 6 4 14 12 17 21 8 18 -11 -5 -34 -16 -16 -17 -20 -5
-20 8 0 15 5 15 10 0 6 5 10 11 10 5 0 8 -4 5 -8 -3 -4 31 -9 75 -9 74 -1 95
6 67 23 -7 5 -8 3 -3 -7 7 -11 5 -11 -10 1 -10 8 -16 10 -12 4 3 -6 -5 -10
-23 -10 -25 0 -28 2 -17 15 11 13 9 13 -13 -1 -26 -15 -50 -18 -50 -5 0 4 0
10 0 13 0 4 7 1 15 -6 15 -12 20 -4 16 23 0 4 4 7 10 7 6 0 8 -7 4 -17 -5 -14
-3 -15 6 -6 14 14 2 36 -15 30 -7 -3 -13 1 -13 7 0 8 10 12 24 10 13 -1 23 2
23 6 0 5 -13 8 -30 8 -27 -1 -35 -9 -31 -31 1 -5 -3 -5 -9 -2 -6 4 -9 13 -6
20 3 10 -4 13 -25 13 -28 -1 -36 -8 -22 -21 3 -4 12 -2 20 4 18 16 16 4 -3
-15 -16 -17 -35 -21 -33 -8 5 29 -3 39 -31 40 -20 0 -30 -4 -30 -14 0 -8 -5
-12 -10 -9 -6 4 -8 11 -5 16 4 5 -2 9 -11 9 -15 0 -15 -3 5 -23z m65 1 c-3 -4
0 -8 6 -8 6 0 9 -4 5 -9 -3 -6 3 -14 12 -20 28 -16 5 -13 -32 5 -35 16 -38 44
-5 41 10 -1 16 -5 14 -9z m80 -38 c-6 -6 -10 -3 -10 10 0 13 4 16 10 10 7 -7
7 -13 0 -20z m31 10 c3 -5 1 -10 -4 -10 -6 0 -11 5 -11 10 0 6 2 10 4 10 3 0
8 -4 11 -10z"/>
<path d="M1370 3551 c0 -6 4 -13 10 -16 6 -3 7 1 4 9 -7 18 -14 21 -14 7z"/>
<path d="M1566 3568 c5 -7 -10 -12 -29 -9 -4 1 -1 -9 8 -22 8 -13 12 -27 8
-30 -3 -4 -2 -7 4 -7 6 0 14 7 17 16 9 24 7 31 -4 14 -5 -8 -10 -10 -10 -4 0
5 7 19 15 30 10 12 14 14 12 4 -2 -8 -2 -12 0 -7 3 4 9 5 14 1 5 -3 9 -1 9 4
0 5 20 8 45 7 25 0 45 3 45 7 0 5 -31 8 -69 6 -38 -1 -67 -6 -65 -10z"/>
<path d="M1710 3564 c0 -13 3 -14 14 -5 11 9 16 9 21 0 6 -8 10 -7 16 2 6 9 8
5 5 -14 -3 -19 -1 -27 7 -24 7 2 11 12 9 22 -3 17 -2 17 13 1 9 -9 21 -16 27
-16 6 0 0 -9 -13 -19 -23 -18 -24 -18 -47 0 -24 18 -42 18 -42 -1 0 -5 6 -7
14 -4 8 3 16 2 19 -3 3 -5 -9 -8 -26 -8 -23 1 -32 6 -32 17 0 20 -14 37 -16
20 -3 -26 -4 -31 -11 -37 -3 -4 -15 -2 -25 4 -12 7 -13 10 -4 11 11 0 11 3 1
16 -11 12 -11 15 0 12 7 -2 14 2 17 8 2 6 -3 11 -12 11 -8 0 -15 -4 -15 -9 0
-4 -3 -7 -7 -7 -22 4 -33 -3 -33 -18 1 -16 2 -16 16 2 11 14 15 15 13 5 -1 -8
1 -23 5 -32 7 -16 69 -17 917 -18 517 0 919 -4 932 -9 14 -5 27 -17 31 -26 3
-9 6 -762 6 -1674 0 -1275 3 -1660 12 -1669 15 -15 61 -15 76 0 19 19 17 3451
-2 3467 -10 8 -267 11 -950 11 -852 0 -936 -2 -936 -16z m141 -1 c8 6 6 3 -3
-8 -17 -19 -19 -19 -35 -1 -17 18 -17 18 3 8 15 -8 25 -8 35 1z m54 -4 c-9
-13 27 -8 38 6 5 6 7 4 5 -4 -4 -15 -35 -24 -50 -15 -8 5 -2 24 8 24 3 0 2 -5
-1 -11z m180 -17 c-1 -9 1 -22 6 -28 5 -6 4 -11 -4 -11 -8 0 -13 13 -13 33 0
18 3 31 7 28 4 -2 6 -12 4 -22z m-195 -14 c0 -11 -12 -10 -30 2 -12 7 -10 9 8
7 12 0 22 -5 22 -9z m80 2 c0 -5 -2 -10 -4 -10 -3 0 -8 5 -11 10 -3 6 -1 10 4
10 6 0 11 -4 11 -10z m57 -9 c0 -11 -5 -18 -9 -15 -4 3 -5 11 -1 19 7 21 12
19 10 -4z m258 1 c-3 -3 -11 0 -18 7 -9 10 -8 11 6 5 10 -3 15 -9 12 -12z m42
3 c0 -8 -4 -12 -9 -9 -4 3 -8 9 -8 15 0 5 4 9 8 9 5 0 9 -7 9 -15z m-383 -16
c-3 -5 -15 -7 -26 -3 -15 4 -18 3 -13 -6 5 -9 4 -11 -4 -6 -18 12 -2 28 21 20
15 -4 18 -3 13 6 -5 9 -4 11 4 6 6 -4 9 -12 5 -17z m110 5 c3 -8 2 -12 -4 -9
-6 3 -10 10 -10 16 0 14 7 11 14 -7z m-185 -7 c8 -10 7 -14 -4 -14 -8 0 -12 4
-9 9 3 4 0 8 -5 8 -6 0 -11 -5 -11 -12 0 -6 -3 -9 -6 -5 -7 7 4 27 15 27 5 0
14 -6 20 -13z"/>
<path d="M1074 3543 c16 -20 36 -23 36 -6 0 4 -3 3 -7 0 -3 -4 -16 1 -27 10
-21 18 -21 18 -2 -4z"/>
<path d="M1214 3533 c2 -16 4 -29 5 -31 4 -10 41 22 41 35 0 24 13 7 16 -21 2
-18 -1 -23 -12 -19 -8 3 -14 1 -14 -4 0 -4 13 -9 30 -9 25 -1 27 0 15 13 -8 8
-15 20 -15 26 0 7 7 3 15 -7 8 -11 15 -16 16 -10 0 5 4 0 9 -11 6 -16 8 -14 7
13 0 17 -6 37 -14 43 -8 8 -13 8 -13 1 0 -6 6 -12 13 -15 6 -2 9 -8 5 -12 -9
-9 -40 14 -33 24 2 4 -3 8 -12 8 -9 0 -18 -8 -20 -18 -3 -10 -12 -20 -20 -23
-10 -4 -13 -1 -8 13 3 11 1 22 -4 25 -6 4 -8 -5 -7 -21z"/>
<path d="M1662 3540 c-7 -11 -8 -20 -3 -20 5 0 12 7 15 16 9 23 37 -1 29 -24
-3 -11 1 -9 11 5 11 15 22 20 34 16 15 -6 15 -5 3 11 -10 12 -16 14 -21 5 -6
-8 -13 -8 -28 0 -26 14 -25 14 -40 -9z"/>
<path d="M1117 3522 c-16 -18 -16 -19 3 -17 11 1 23 5 27 10 5 4 2 4 -6 0 -11
-6 -13 -4 -8 8 8 22 4 21 -16 -1z"/>
<path d="M1177 3523 c5 -12 3 -14 -7 -8 -9 5 -11 4 -6 -4 4 -6 12 -9 17 -6 12
8 12 35 -1 35 -5 0 -6 -7 -3 -17z"/>
<path d="M1785 3519 c-11 -17 1 -21 15 -4 8 9 8 15 2 15 -6 0 -14 -5 -17 -11z"/>
<path d="M934 3506 c1 -8 5 -18 8 -22 4 -3 5 1 4 10 -1 8 -5 18 -8 22 -4 3 -5
-1 -4 -10z"/>
<path d="M1075 3501 c-3 -5 -2 -12 3 -15 5 -3 9 1 9 9 0 17 -3 19 -12 6z"/>
<path d="M1364 3502 c3 -6 -2 -13 -11 -15 -14 -4 -13 -5 5 -6 23 -1 30 13 10
25 -6 4 -8 3 -4 -4z"/>
<path d="M1150 3490 c0 -5 5 -10 11 -10 5 0 7 5 4 10 -3 6 -8 10 -11 10 -2 0
-4 -4 -4 -10z"/>
<path d="M1186 3492 c-2 -4 4 -8 14 -8 10 0 16 4 14 8 -3 4 -9 8 -14 8 -5 0
-11 -4 -14 -8z"/>
<path d="M1390 3490 c0 -5 5 -10 11 -10 5 0 7 5 4 10 -3 6 -8 10 -11 10 -2 0
-4 -4 -4 -10z"/>
<path d="M1430 3171 c-6 -12 -10 -106 -10 -235 0 -182 2 -217 16 -230 31 -32
87 -7 83 38 0 11 -1 87 0 168 1 119 4 150 17 162 23 24 429 24 462 0 l22 -15
0 -1120 0 -1119 -24 -15 c-35 -23 -452 -18 -466 5 -6 9 -10 280 -10 682 0 592
-2 668 -16 682 -21 22 -61 20 -73 -3 -7 -12 -11 -190 -11 -487 -1 -429 -2
-468 -18 -480 -12 -10 -63 -13 -184 -14 -156 0 -168 1 -186 21 -12 13 -18 28
-14 41 4 16 1 20 -10 16 -8 -4 -15 -1 -15 7 0 7 6 11 12 9 20 -8 17 67 -3 83
-14 12 -14 14 -1 10 12 -4 15 4 15 39 0 24 -4 44 -9 44 -6 0 -6 5 0 13 5 6 10
38 11 71 1 44 -1 57 -11 53 -8 -3 -14 1 -14 9 0 8 5 13 12 11 6 -3 12 6 13 19
1 13 -2 24 -8 24 -14 0 -21 -18 -10 -23 6 -3 5 -4 -2 -3 -7 2 -12 9 -11 15 4
15 -14 14 -19 -1 -3 -9 -6 -9 -12 0 -4 7 -2 12 4 12 6 0 8 5 5 10 -3 6 -2 10
4 10 5 0 13 -5 16 -10 4 -6 11 -7 18 -3 7 4 4 9 -9 14 -33 13 -54 10 -47 -6 3
-10 0 -15 -8 -13 -9 2 -15 -8 -17 -29 -3 -25 1 -33 13 -33 9 0 13 -5 10 -10
-4 -6 -10 -8 -14 -6 -4 3 -8 -22 -8 -55 0 -32 2 -59 5 -59 3 0 14 8 25 18 16
13 19 14 15 2 -2 -8 -14 -19 -26 -25 -26 -11 -28 -65 -3 -65 12 0 12 3 3 12
-14 14 -16 38 -2 38 5 0 7 -7 4 -15 -4 -8 1 -17 10 -21 15 -6 15 -8 -1 -19
-10 -7 -20 -12 -24 -10 -3 2 -6 -21 -6 -51 0 -58 1 -59 49 -39 12 5 16 2 13
-12 -2 -10 -4 -20 -4 -23 -1 -3 -5 1 -10 9 -7 12 -13 12 -24 3 -7 -7 -16 -10
-19 -7 -2 3 -5 -29 -5 -70 0 -41 4 -75 9 -75 5 0 6 -4 3 -10 -7 -11 -5 -12 47
-15 29 -1 35 2 31 14 -4 14 -3 14 9 0 11 -14 40 -17 186 -18 182 -2 202 -4
202 -28 0 -8 5 -11 12 -7 6 4 8 3 5 -3 -3 -5 -7 -62 -8 -127 -1 -101 -4 -118
-19 -126 -10 -6 -64 -10 -119 -10 -59 0 -101 -4 -101 -10 0 -5 8 -7 18 -4 14
5 15 4 2 -5 -13 -9 -13 -11 2 -11 9 0 19 6 21 13 4 9 6 8 6 -2 1 -11 4 -11 18
0 11 10 14 10 9 2 -4 -7 -3 -13 3 -13 5 0 12 5 14 10 3 6 4 5 3 -2 -2 -7 -15
-12 -30 -12 -17 1 -25 -3 -22 -11 2 -6 -2 -12 -10 -12 -7 0 -11 3 -9 7 2 3 -5
11 -16 18 -22 14 -24 5 -4 -22 18 -23 67 -32 58 -10 -3 8 0 14 7 14 6 0 8 -4
5 -10 -3 -5 -2 -10 3 -10 5 0 17 15 26 33 8 17 16 25 16 17 0 -8 -9 -26 -20
-40 -17 -22 -26 -25 -92 -26 -40 -1 -79 3 -85 9 -9 6 -13 6 -13 -2 0 -13 -36
-9 -51 6 -14 14 8 13 31 -2 13 -7 13 -6 2 7 -11 14 -11 16 0 14 7 -1 19 -6 27
-10 10 -7 12 -6 6 4 -5 9 -4 11 3 6 18 -11 14 0 -5 15 -9 8 -14 9 -10 2 5 -7
1 -10 -10 -9 -10 1 -22 12 -28 23 -8 19 -17 21 -72 20 -59 -1 -61 -2 -46 -19
9 -10 11 -18 5 -18 -6 0 -17 8 -24 18 -17 23 -86 24 -98 1 -7 -12 -3 -19 16
-28 14 -6 23 -15 20 -20 -4 -5 0 -12 6 -14 7 -3 2 -6 -11 -6 -17 -1 -22 3 -17
15 3 8 2 12 -4 9 -6 -3 -10 -1 -10 4 0 6 -7 11 -16 11 -9 0 -12 5 -8 12 4 6 3
8 -4 4 -6 -3 -13 3 -17 14 -9 28 -80 24 -83 -5 -1 -15 1 -17 8 -5 11 18 65 27
54 8 -4 -7 -4 -10 0 -7 7 6 66 -43 66 -55 0 -10 -24 -2 -40 14 -8 9 -12 11 -7
6 12 -17 8 -29 -7 -17 -10 9 -15 8 -19 -1 -3 -10 20 -13 99 -14 57 -1 104 3
104 7 0 5 5 9 11 9 5 0 8 -4 5 -9 -9 -14 1623 -14 1640 0 11 9 14 55 14 228 0
172 3 221 14 237 13 17 28 19 185 19 126 0 173 -3 183 -13 10 -10 14 -110 16
-465 1 -249 0 -462 -3 -475 -3 -12 -17 -27 -31 -32 -15 -6 -395 -10 -974 -10
-896 0 -949 -1 -944 -18 5 -15 4 -15 -8 -1 -10 12 -40 15 -155 17 -84 1 -145
-3 -148 -8 -3 -6 -11 -10 -16 -10 -6 0 -8 4 -5 8 3 5 -2 9 -11 9 -12 0 -11 -5
7 -19 12 -10 30 -17 39 -17 13 1 13 2 -2 6 -9 2 -15 9 -12 14 7 10 58 12 68 2
9 -9 -13 -34 -24 -27 -5 3 -9 0 -9 -6 0 -7 8 -9 20 -5 29 9 24 -8 -7 -27 -16
-10 -22 -18 -15 -18 7 0 21 7 30 16 14 15 17 15 27 1 9 -12 33 -15 121 -14 97
1 110 3 110 18 0 10 -5 15 -10 12 -5 -3 -6 -1 -2 5 10 16 27 15 25 -1 -1 -6
-1 -17 0 -24 1 -17 1997 -19 2017 -2 19 16 21 1158 2 1177 -17 17 -559 17
-576 0 -9 -9 -12 -73 -12 -228 0 -171 -3 -220 -14 -236 -13 -17 -30 -19 -180
-22 -155 -3 -166 -2 -185 17 -21 21 -21 22 -21 1131 0 1097 0 1110 20 1130 18
18 33 20 180 20 147 0 162 -2 180 -20 20 -20 20 -33 20 -688 0 -506 3 -671 12
-680 17 -17 559 -17 576 0 17 17 17 1459 0 1476 -15 15 -61 15 -76 0 -9 -9
-12 -173 -12 -678 0 -559 -2 -669 -14 -686 -13 -17 -30 -19 -178 -22 -131 -3
-167 0 -183 12 -20 14 -20 28 -23 687 -2 471 -6 676 -13 686 -9 10 -121 13
-590 13 -562 0 -579 -1 -589 -19z m77 -5 c0 -8 -6 -12 -15 -8 -10 3 -13 1 -8
-6 5 -8 2 -10 -10 -5 -14 5 -13 8 7 19 13 7 24 13 25 14 0 0 1 -6 1 -14z m57
6 c3 -5 -1 -9 -9 -9 -8 0 -12 4 -9 9 3 4 7 8 9 8 2 0 6 -4 9 -8z m319 -17 c-3
-9 -8 -14 -10 -11 -3 3 -2 9 2 15 9 16 15 13 8 -4z m-98 -5 c3 -5 1 -10 -4
-10 -6 0 -11 5 -11 10 0 6 2 10 4 10 3 0 8 -4 11 -10z m45 4 c0 -8 -19 -13
-24 -6 -3 5 1 9 9 9 8 0 15 -2 15 -3z m-247 -19 c-3 -9 -8 -14 -10 -11 -3 3
-2 9 2 15 9 16 15 13 8 -4z m-113 -10 c0 -8 -2 -15 -4 -15 -2 0 -6 7 -10 15
-3 8 -1 15 4 15 6 0 10 -7 10 -15z m174 7 c3 -5 -1 -9 -9 -9 -8 0 -12 4 -9 9
3 4 7 8 9 8 2 0 6 -4 9 -8z m46 2 c0 -8 -19 -13 -24 -6 -3 5 1 9 9 9 8 0 15
-2 15 -3z m-242 -29 c-3 -3 -9 2 -12 12 -6 14 -5 15 5 6 7 -7 10 -15 7 -18z
m92 5 c8 -5 11 -10 5 -10 -5 0 -17 5 -25 10 -8 5 -10 10 -5 10 6 0 17 -5 25
-10z m-31 -45 c0 -5 -4 -3 -9 5 -5 8 -9 22 -9 30 0 16 17 -16 18 -35z m-39 25
c0 -5 -5 -10 -11 -10 -5 0 -7 5 -4 10 3 6 8 10 11 10 2 0 4 -4 4 -10z m-13
-26 c-3 -3 -12 -4 -19 -1 -8 3 -5 6 6 6 11 1 17 -2 13 -5z m36 -46 c-21 -43
-27 -49 -18 -18 7 23 23 50 30 50 2 0 -4 -15 -12 -32z m-43 3 c0 -6 -4 -12 -8
-15 -5 -3 -9 1 -9 9 0 8 4 15 9 15 4 0 8 -4 8 -9z m56 -36 c-1 -8 -5 -17 -8
-21 -5 -4 -4 16 1 34 3 9 9 -1 7 -13z m-46 -9 c0 -2 -7 -7 -16 -10 -8 -3 -12
-2 -9 4 6 10 25 14 25 6z m44 -41 c-4 -8 -11 -15 -16 -15 -6 0 -5 6 2 15 7 8
14 15 16 15 2 0 1 -7 -2 -15z m-35 2 c-2 -1 -13 -9 -24 -17 -19 -14 -19 -14
-6 3 7 9 18 17 24 17 6 0 8 -1 6 -3z m21 -60 c0 -4 5 -5 12 -1 7 5 8 3 3 -6
-6 -10 -11 -9 -22 5 -7 11 -13 23 -13 28 0 4 -5 5 -12 1 -7 -5 -8 -3 -3 6 6
10 11 9 22 -5 7 -11 13 -23 13 -28z m-40 -6 c0 -6 -4 -12 -8 -15 -5 -3 -9 1
-9 9 0 8 4 15 9 15 4 0 8 -4 8 -9z m0 -41 c0 -5 -2 -10 -4 -10 -3 0 -8 5 -11
10 -3 6 -1 10 4 10 6 0 11 -4 11 -10z m34 -15 c-7 -16 -24 -21 -24 -6 0 8 7
13 27 20 1 1 0 -6 -3 -14z m9 -75 c-3 -12 -8 -19 -11 -16 -5 6 5 36 12 36 2 0
2 -9 -1 -20z m-28 -570 c3 -5 1 -10 -4 -10 -6 0 -11 5 -11 10 0 6 2 10 4 10 3
0 8 -4 11 -10z m23 -41 c-6 -16 -12 -28 -14 -26 -5 5 13 57 20 57 3 0 0 -14
-6 -31z m-34 5 c5 -14 4 -15 -9 -4 -17 14 -19 20 -6 20 5 0 12 -7 15 -16z m53
-29 c0 -8 -4 -12 -9 -9 -5 3 -6 10 -3 15 9 13 12 11 12 -6z m-42 -15 c3 -6 -1
-7 -9 -4 -18 7 -21 14 -7 14 6 0 13 -4 16 -10z m-15 -19 c0 -6 -4 -12 -8 -15
-5 -3 -9 1 -9 9 0 8 4 15 9 15 4 0 8 -4 8 -9z m30 -15 c0 -3 -4 -8 -10 -11 -5
-3 -10 -1 -10 4 0 6 5 11 10 11 6 0 10 -2 10 -4z m25 -6 c3 -5 1 -10 -4 -10
-6 0 -11 5 -11 10 0 6 2 10 4 10 3 0 8 -4 11 -10z m-55 -20 c0 -5 -2 -10 -4
-10 -3 0 -8 5 -11 10 -3 6 -1 10 4 10 6 0 11 -4 11 -10z m34 -15 c-4 -8 -10
-15 -16 -15 -5 0 -6 -4 -3 -10 3 -5 4 -10 1 -10 -14 0 -14 20 0 34 19 20 25
20 18 1z m12 -61 c18 -15 18 -15 -3 -5 -28 14 -36 14 -27 -1 4 -7 3 -8 -5 -4
-11 7 -6 26 8 26 4 0 16 -7 27 -16z m5 -31 c13 -16 12 -17 -3 -4 -14 11 -18
11 -18 1 0 -8 -3 -11 -6 -7 -5 5 3 27 10 27 2 0 10 -8 17 -17z m-53 -38 c-3
-3 -9 2 -12 12 -6 14 -5 15 5 6 7 -7 10 -15 7 -18z m52 5 c0 -5 -5 -10 -11
-10 -5 0 -7 5 -4 10 3 6 8 10 11 10 2 0 4 -4 4 -10z m-43 -46 c-3 -3 -12 -4
-19 -1 -8 3 -5 6 6 6 11 1 17 -2 13 -5z m33 -40 c0 -8 5 -12 10 -9 6 3 10 4
10 1 0 -16 -21 -13 -30 4 -7 13 -7 20 0 20 5 0 10 -7 10 -16z m-40 -3 c0 -6
-4 -12 -8 -15 -5 -3 -9 1 -9 9 0 8 4 15 9 15 4 0 8 -4 8 -9z m24 -33 c-3 -4
-9 -8 -15 -8 -5 0 -9 4 -9 8 0 5 7 9 15 9 8 0 12 -4 9 -9z m19 -30 c-21 -43
-27 -49 -18 -18 7 23 23 50 30 50 2 0 -4 -15 -12 -32z m-43 3 c0 -6 -4 -12 -8
-15 -5 -3 -9 1 -9 9 0 8 4 15 9 15 4 0 8 -4 8 -9z m56 -36 c-1 -8 -5 -17 -8
-21 -5 -4 -4 16 1 34 3 9 9 -1 7 -13z m-46 -9 c0 -2 -7 -7 -16 -10 -8 -3 -12
-2 -9 4 6 10 25 14 25 6z m44 -41 c-4 -8 -11 -15 -16 -15 -6 0 -5 6 2 15 7 8
14 15 16 15 2 0 1 -7 -2 -15z m-549 -34 c-3 -11 0 -10 10 3 8 11 16 17 16 13
5 -25 3 -33 -11 -44 -12 -10 -11 -11 11 -9 26 3 26 2 24 -51 -1 -29 -5 -56 -8
-59 -3 -4 -2 -14 3 -24 6 -11 4 -24 -6 -38 -14 -20 -13 -21 3 -16 17 5 17 5 0
-6 -15 -10 -16 -14 -5 -27 18 -22 19 -76 2 -62 -9 7 -19 7 -33 0 -25 -14 -32
-3 -26 39 4 30 25 67 25 45 0 -6 4 -4 9 4 11 17 3 43 -10 35 -5 -3 -9 0 -9 5
0 6 5 11 10 11 6 0 10 5 10 11 0 5 -6 7 -12 3 -7 -4 -5 2 5 13 14 17 16 26 8
41 -10 19 -6 32 10 32 4 0 6 -9 4 -20 -2 -11 0 -22 4 -24 4 -3 7 7 6 21 0 15
-7 29 -14 31 -10 3 -10 6 -1 12 9 5 9 9 1 14 -6 4 -11 2 -11 -4 0 -6 -4 -9 -9
-5 -5 3 -13 0 -17 -6 -4 -7 -3 -9 4 -5 11 7 11 -19 -1 -30 -4 -4 -7 -12 -7
-18 0 -6 5 -4 10 4 5 8 10 10 10 4 0 -6 -6 -17 -14 -23 -11 -10 -13 -4 -11 33
1 25 8 52 15 61 10 12 9 16 -4 21 -9 3 -16 17 -16 31 0 22 2 24 15 13 9 -7 13
-20 10 -29z m514 36 c-2 -1 -13 -9 -24 -17 -19 -14 -19 -14 -6 3 7 9 18 17 24
17 6 0 8 -1 6 -3z m20 -61 c0 -6 -3 -5 -6 2 -2 6 -9 10 -14 7 -5 -4 -6 2 -2
11 5 13 3 15 -7 9 -9 -6 -11 -4 -5 5 6 10 11 9 22 -5 7 -11 13 -24 12 -29z
m-39 -5 c0 -6 -4 -12 -8 -15 -5 -3 -9 1 -9 9 0 8 4 15 9 15 4 0 8 -4 8 -9z
m30 -15 c0 -3 -4 -8 -10 -11 -5 -3 -10 -1 -10 4 0 6 5 11 10 11 6 0 10 -2 10
-4z m25 -6 c3 -5 1 -10 -4 -10 -6 0 -11 5 -11 10 0 6 2 10 4 10 3 0 8 -4 11
-10z m-55 -20 c0 -5 -2 -10 -4 -10 -3 0 -8 5 -11 10 -3 6 -1 10 4 10 6 0 11
-4 11 -10z m34 -15 c-4 -8 -10 -15 -16 -15 -5 0 -6 -4 -3 -10 3 -5 4 -10 1
-10 -14 0 -14 20 0 34 19 20 25 20 18 1z m12 -61 c18 -15 18 -15 -3 -5 -28 14
-36 14 -27 -1 4 -7 3 -8 -5 -4 -11 7 -6 26 8 26 4 0 16 -7 27 -16z m4 -34 c6
-11 8 -20 6 -20 -3 0 -10 9 -16 20 -6 11 -8 20 -6 20 3 0 10 -9 16 -20z m-15
-29 c2 -11 0 -21 -4 -21 -5 0 -8 11 -8 25 0 30 6 28 12 -4z m-30 1 c-3 -3 -11
0 -18 7 -9 10 -8 11 6 5 10 -3 15 -9 12 -12z m8 -35 c4 3 7 1 7 -5 0 -6 -8
-10 -18 -9 -10 0 -19 7 -19 14 0 9 4 10 12 3 7 -5 15 -7 18 -3z m47 0 c0 -2
-9 -21 -20 -43 -21 -43 -27 -41 -8 3 6 15 11 31 10 36 -1 4 3 7 8 7 6 0 10 -1
10 -3z m-69 -50 c-10 -9 -11 -8 -5 6 3 10 9 15 12 12 3 -3 0 -11 -7 -18z m64
-36 c0 -16 -3 -27 -7 -25 -6 4 -5 29 1 52 4 11 7 -3 6 -27z m-50 1 c-3 -3 -11
0 -18 7 -9 10 -8 11 6 5 10 -3 15 -9 12 -12z m30 -41 c2 -11 0 -21 -4 -21 -5
0 -8 11 -8 25 0 30 6 28 12 -4z m-515 -2 c0 -6 -4 -8 -9 -4 -5 3 -13 0 -17 -6
-4 -7 -3 -9 4 -5 11 7 11 -19 -1 -30 -12 -12 -8 -22 16 -45 16 -16 18 -20 5
-16 -10 3 -20 1 -24 -5 -5 -7 -2 -8 6 -3 9 6 11 4 5 -4 -6 -10 -3 -11 13 -2
11 6 22 8 25 3 2 -4 2 -1 0 6 -1 7 1 10 7 7 5 -3 7 3 5 14 -3 15 1 19 13 15 9
-3 6 1 -7 9 -28 16 -39 74 -16 74 8 0 12 -4 10 -8 -3 -4 3 -21 12 -38 16 -28
35 -36 71 -32 15 2 16 -15 0 -25 -6 -4 -9 -3 -5 2 3 5 -8 10 -25 11 -17 0 -25
-2 -18 -7 6 -4 11 -10 11 -14 -3 -23 0 -30 8 -18 7 11 9 10 15 -3 3 -9 10 -13
16 -10 5 3 10 1 10 -4 0 -6 -7 -11 -15 -11 -8 0 -15 5 -15 11 0 8 -4 8 -14 0
-11 -10 -17 -7 -29 9 l-15 22 -7 -21 c-3 -12 -11 -21 -16 -21 -6 0 -7 5 -4 10
3 6 2 10 -4 10 -5 0 -13 -5 -17 -11 -21 -34 -42 103 -22 144 9 18 28 15 28 -4z
m490 6 c0 -2 -6 -5 -13 -8 -8 -3 -14 1 -14 8 0 7 6 11 14 8 7 -3 13 -6 13 -8z
m-484 -32 c-2 -10 3 -28 11 -40 18 -28 1 -39 -22 -13 -10 12 -14 24 -9 32 5 7
9 16 10 21 3 14 4 17 8 17 2 0 3 -8 2 -17z m494 -13 c0 -5 -4 -10 -10 -10 -5
0 -10 5 -10 10 0 6 5 10 10 10 6 0 10 -4 10 -10z m40 7 c0 -2 -9 -21 -20 -43
-21 -43 -27 -41 -8 3 6 15 11 31 10 36 -1 4 3 7 8 7 6 0 10 -1 10 -3z m-67
-48 c-4 -4 -15 -4 -23 2 -12 9 -12 10 3 5 15 -5 17 -2 12 17 -5 20 -5 20 6 4
6 -11 7 -23 2 -28z m-272 -2 c1 -7 1 -15 0 -19 -1 -10 3 -10 23 -2 15 6 15 7
1 18 -15 10 -14 12 4 12 11 0 17 -4 15 -8 -3 -4 -1 -8 5 -8 5 0 12 6 14 13 4
9 6 9 6 -1 1 -7 -6 -15 -14 -18 -8 -4 -12 -10 -9 -16 8 -12 34 10 34 28 0 10
6 8 20 -6 11 -11 24 -20 30 -20 5 0 7 -8 4 -17 -5 -15 -3 -15 10 1 13 17 18
18 29 6 10 -10 9 -11 -2 -5 -10 6 -13 4 -9 -6 4 -11 -8 -14 -66 -14 -59 0 -74
3 -88 20 -10 11 -17 15 -18 10 0 -6 5 -16 10 -21 7 -7 0 -10 -22 -10 -22 1
-37 8 -45 21 -9 15 -12 16 -13 5 0 -12 -3 -11 -11 3 -6 9 -15 14 -21 11 -7 -4
-8 -2 -4 5 6 9 11 9 21 1 11 -9 17 -7 26 8 13 21 68 28 70 9z m148 -4 c15 -17
3 -16 -29 2 -22 12 -23 14 -4 12 11 0 26 -7 33 -14z m44 -9 c-4 -12 -8 -13
-14 -3 -9 15 -2 32 11 24 5 -3 6 -13 3 -21z m59 -23 c-3 -16 0 -21 9 -16 8 5
10 4 5 -4 -11 -17 -29 -2 -23 19 3 14 -1 18 -14 17 -11 -1 -19 -7 -19 -14 0
-7 -5 -13 -10 -13 -7 0 -7 6 -1 19 6 10 20 18 33 17 18 -1 22 -6 20 -25z m85
14 c0 -8 -4 -12 -9 -9 -5 3 -6 10 -3 15 9 13 12 11 12 -6z m-49 -17 c-2 -4 6
-14 17 -23 19 -16 19 -16 -3 -5 -12 6 -20 15 -17 20 3 4 0 11 -5 13 -7 4 -6 5
1 4 6 -2 9 -6 7 -9z m-54 -24 c3 -8 2 -12 -4 -9 -6 3 -10 10 -10 16 0 14 7 11
14 -7z m66 -21 c0 -3 -7 -2 -16 1 -12 5 -14 1 -9 -17 5 -19 4 -20 -5 -4 -13
21 -5 38 15 30 8 -3 15 -7 15 -10z m33 -43 c3 -11 3 -20 1 -20 -2 0 -8 9 -14
20 -6 11 -7 20 -2 20 6 0 12 -9 15 -20z m-18 -29 c2 -11 0 -21 -4 -21 -5 0 -8
11 -8 25 0 30 6 28 12 -4z m-25 4 c0 -2 -6 -5 -13 -8 -8 -3 -14 1 -14 8 0 7 6
11 14 8 7 -3 13 -6 13 -8z m10 -45 c0 -5 -4 -10 -10 -10 -5 0 -10 5 -10 10 0
6 5 10 10 10 6 0 10 -4 10 -10z m40 7 c0 -2 -9 -21 -20 -43 -21 -43 -27 -41
-8 3 6 15 11 31 10 36 -1 4 3 7 8 7 6 0 10 -1 10 -3z m580 -1 c0 -3 -4 -8 -10
-11 -5 -3 -10 -1 -10 4 0 6 5 11 10 11 6 0 10 -2 10 -4z m-649 -49 c-10 -9
-11 -8 -5 6 3 10 9 15 12 12 3 -3 0 -11 -7 -18z m65 -22 c-1 -8 -5 -17 -8 -21
-5 -4 -4 16 1 34 3 9 9 -1 7 -13z m-51 -13 c-3 -3 -11 0 -18 7 -9 10 -8 11 6
5 10 -3 15 -9 12 -12z m49 -37 c-4 -8 -11 -15 -16 -15 -6 0 -5 6 2 15 7 8 14
15 16 15 2 0 1 -7 -2 -15z m-34 -3 c0 -4 -10 -9 -22 -9 -18 -2 -20 0 -8 7 18
12 30 13 30 2z m5 -41 c-3 -6 -11 -11 -16 -11 -5 0 -4 6 3 14 14 16 24 13 13
-3z m-33 -35 c-11 -6 -21 -15 -21 -21 0 -5 -8 -12 -18 -14 -10 -2 -22 -7 -28
-11 -5 -4 -18 -6 -28 -4 -11 1 -17 -2 -14 -9 3 -8 -6 -12 -24 -12 -28 -1 -28
-1 -12 25 9 14 21 30 27 35 13 13 51 13 63 1 5 -5 3 -6 -4 -2 -7 4 -13 5 -13
2 0 -2 -3 -13 -6 -23 -6 -15 -4 -16 7 -5 7 6 21 12 32 12 10 0 15 5 12 10 -3
6 1 13 9 16 9 3 13 10 10 15 -3 5 2 6 12 2 14 -5 14 -7 -4 -17z m72 -2 c3 -8
2 -12 -4 -9 -6 3 -10 10 -10 16 0 14 7 11 14 -7z m31 7 c3 -5 2 -12 -3 -15 -5
-3 -9 1 -9 9 0 17 3 19 12 6z m-695 -10 c0 -6 -4 -13 -10 -16 -5 -3 -10 1 -10
9 0 9 5 16 10 16 6 0 10 -4 10 -9z m40 -4 c0 -6 3 -7 7 -4 3 4 14 0 23 -8 10
-9 25 -13 34 -9 15 6 15 7 0 19 -15 11 -15 12 0 12 9 0 16 -4 16 -9 0 -4 5 -8
11 -8 5 0 8 3 6 8 -3 4 8 7 23 8 26 1 39 -10 40 -34 0 -4 -4 -8 -10 -8 -21 -3
-22 -4 -11 -17 9 -11 5 -13 -17 -12 -16 1 -34 5 -40 9 -7 4 -18 4 -24 -1 -21
-13 -58 -15 -58 -3 0 6 4 8 10 5 6 -4 7 1 3 12 -6 16 -5 16 16 -1 18 -17 21
-17 15 -3 -6 17 -16 21 -43 18 -7 -2 -10 2 -6 8 3 6 1 11 -4 11 -14 0 -14 -17
-1 -25 6 -4 8 -11 4 -16 -9 -15 -35 26 -29 44 7 16 35 19 35 4z m590 3 c-8 -5
-19 -10 -25 -10 -5 0 -3 5 5 10 8 5 20 10 25 10 6 0 3 -5 -5 -10z m125 0 c3
-5 1 -10 -4 -10 -6 0 -11 5 -11 10 0 6 2 10 4 10 3 0 8 -4 11 -10z m75 6 c0
-2 -8 -10 -17 -17 -16 -13 -17 -12 -4 4 13 16 21 21 21 13z m-115 -25 c3 -5 2
-12 -3 -15 -5 -3 -9 1 -9 9 0 17 3 19 12 6z m225 5 c0 -3 -4 -8 -10 -11 -5 -3
-10 -1 -10 4 0 6 5 11 10 11 6 0 10 -2 10 -4z m-344 -15 c-4 -5 0 -11 6 -14 7
-2 1 -4 -15 -4 -25 0 -26 1 -10 13 21 16 26 17 19 5z m184 5 c0 -2 -8 -10 -17
-17 -16 -13 -17 -12 -4 4 13 16 21 21 21 13z m-133 -28 c-3 -8 -6 -5 -6 6 -1
11 2 17 5 13 3 -3 4 -12 1 -19z m404 5 c13 -17 13 -17 -6 -3 -11 8 -22 16 -24
17 -2 2 0 3 6 3 6 0 17 -8 24 -17z m-497 -11 c2 -4 -4 -9 -15 -9 -11 -1 -17 2
-14 8 7 11 22 12 29 1z m166 -2 c0 -5 -2 -10 -4 -10 -3 0 -8 5 -11 10 -3 6 -1
10 4 10 6 0 11 -4 11 -10z m-516 -549 c13 -11 17 -11 22 2 3 10 17 15 35 15
25 -1 28 -4 23 -22 -6 -18 -5 -19 9 -7 9 7 14 18 10 25 -3 6 0 6 8 -1 16 -15
33 -17 24 -3 -3 6 -1 10 5 10 7 0 10 -6 7 -14 -3 -8 1 -17 9 -20 12 -4 14 -1
9 14 -6 18 -3 17 19 -5 15 -15 24 -30 21 -35 -3 -5 4 -8 15 -7 22 1 27 13 8
20 -7 2 3 4 22 4 19 0 27 -2 18 -4 -10 -3 -18 -8 -18 -13 0 -4 8 -6 19 -3 10
3 21 1 24 -4 3 -5 -21 -9 -53 -9 -51 0 -58 2 -54 19 2 11 -2 17 -9 14 -7 -2
-12 -10 -12 -18 0 -9 -13 -15 -37 -16 -22 -2 -38 1 -38 7 0 7 -6 8 -19 1 -21
-12 -32 -5 -25 14 3 7 0 16 -6 20 -13 8 -42 -13 -35 -25 11 -18 -17 -21 -36
-4 -17 16 -21 16 -36 1 -12 -9 -37 -15 -71 -16 -45 0 -55 4 -68 25 -9 13 -14
28 -10 32 4 3 11 0 16 -8 6 -9 10 -10 10 -3 0 7 -8 17 -17 23 -13 7 11 9 89 7
68 -2 112 -8 122 -16z m200 7 c-3 -4 0 -8 5 -8 6 0 11 4 11 9 0 6 8 9 18 8 18
-1 27 -27 10 -27 -4 0 -8 5 -8 11 0 8 -5 7 -16 -1 -12 -11 -18 -11 -30 2 -13
13 -13 15 0 15 8 0 13 -4 10 -9z m96 1 c0 -5 -4 -7 -10 -4 -5 3 -10 1 -10 -6
0 -7 -3 -10 -6 -6 -8 7 4 27 17 27 5 0 9 -5 9 -11z m34 -1 c-3 -4 -9 -8 -15
-8 -5 0 -9 4 -9 8 0 5 7 9 15 9 8 0 12 -4 9 -9z m80 -20 c-4 -5 -15 -7 -26 -5
-14 4 -18 2 -14 -9 4 -10 2 -12 -6 -8 -7 5 -9 2 -5 -9 4 -12 1 -15 -15 -12
-11 3 -23 7 -27 11 -3 4 1 5 10 1 11 -3 20 2 27 18 8 18 16 22 34 17 21 -5 22
-4 8 14 -14 18 -14 18 2 5 10 -7 15 -18 12 -23z m140 23 c3 -5 -2 -15 -12 -22
-15 -12 -16 -12 -5 2 7 9 10 19 6 22 -3 4 -4 7 0 7 3 0 8 -4 11 -9z m86 -6 c0
-2 -9 -3 -19 -2 -11 0 -18 5 -15 9 4 6 34 0 34 -7z m34 -1 c3 -8 2 -12 -4 -9
-6 3 -10 10 -10 16 0 14 7 11 14 -7z m-321 -9 c-3 -9 -8 -14 -10 -11 -3 3 -2
9 2 15 9 16 15 13 8 -4z m78 -18 c-10 -9 -11 -8 -5 6 3 10 9 15 12 12 3 -3 0
-11 -7 -18z m345 8 c-1 -8 -5 -17 -8 -21 -5 -4 -4 16 1 34 3 9 9 -1 7 -13z
m-458 -4 c11 -7 10 -9 -3 -14 -9 -4 -14 -3 -10 2 3 5 -1 12 -7 14 -7 3 -8 6
-3 6 6 0 16 -3 23 -8z m146 -7 c3 -8 2 -12 -4 -9 -6 3 -10 10 -10 16 0 14 7
11 14 -7z m156 -3 c0 -6 -4 -12 -8 -15 -5 -3 -9 1 -9 9 0 8 4 15 9 15 4 0 8
-4 8 -9z m205 -1 c3 -6 -1 -7 -9 -4 -18 7 -21 14 -7 14 6 0 13 -4 16 -10z
m-865 -20 c0 -5 -4 -10 -10 -10 -5 0 -10 5 -10 10 0 6 5 10 10 10 6 0 10 -4
10 -10z m484 -2 c-2 -3 -13 -6 -24 -5 -24 2 -18 13 9 13 11 0 18 -4 15 -8z
m71 2 c-27 -12 -43 -12 -25 0 8 5 22 9 30 9 10 0 8 -3 -5 -9z"/>
<path d="M979 1475 c-5 -22 -2 -45 6 -44 6 1 8 6 6 13 -2 6 -4 17 -4 24 0 12
-6 17 -8 7z"/>
<path d="M945 1361 c-8 -14 10 -22 31 -14 16 6 17 5 4 -9 -8 -9 -19 -15 -24
-15 -5 1 -11 -5 -13 -13 -3 -10 -2 -11 4 -4 4 6 17 10 29 9 14 -1 20 4 19 18
-2 28 -37 48 -50 28z"/>
<path d="M993 1215 c0 -8 6 -16 14 -19 11 -4 11 -1 3 14 -13 24 -17 25 -17 5z"/>
<path d="M1026 1135 c9 -14 18 -25 20 -25 2 0 -2 11 -8 25 -6 14 -15 25 -20
25 -5 0 -1 -11 8 -25z"/>
<path d="M1110 1155 c-12 -15 2 -35 29 -40 18 -3 21 -1 12 9 -9 10 -8 15 4 20
9 3 14 10 10 15 -7 13 -44 10 -55 -4z m26 -21 c2 -12 -1 -13 -12 -3 -7 6 -11
16 -8 21 7 11 17 3 20 -18z"/>
<path d="M1240 1135 c-9 -11 -16 -13 -24 -5 -13 13 -26 13 -26 -1 0 -5 5 -7
10 -4 6 3 10 2 10 -3 0 -5 18 -8 40 -8 40 0 55 18 24 30 -21 8 -20 8 -34 -9z"/>
<path d="M1327 749 c-15 -11 -27 -25 -27 -31 0 -6 9 -3 20 7 11 10 20 14 20 9
0 -5 5 -1 11 9 16 27 5 30 -24 6z"/>
<path d="M1021 763 c3 -19 -2 -27 -10 -15 -7 12 -14 11 -40 -2 -17 -9 -31 -19
-31 -22 0 -2 9 0 19 6 25 13 32 13 29 -1 -2 -6 4 -14 12 -16 13 -4 13 -3 0 6
-8 6 -12 11 -7 12 10 2 25 6 35 9 4 1 11 2 16 1 5 -1 4 5 -4 13 -14 17 -21 20
-19 9z"/>
<path d="M873 155 c0 -5 -2 -16 -4 -24 -2 -8 6 -15 20 -17 20 -4 22 -1 17 19
-4 17 -1 24 9 24 8 0 13 -9 12 -21 -2 -25 29 -30 56 -8 15 13 19 13 37 -3 11
-10 23 -15 27 -12 3 4 0 7 -7 7 -9 0 -7 5 5 14 18 13 18 14 -3 25 -12 7 -22 8
-21 4 3 -20 -2 -27 -10 -14 -11 18 -51 23 -45 6 3 -6 -2 -12 -11 -12 -9 0 -14
5 -12 12 3 7 -9 11 -32 10 -21 0 -38 -4 -38 -10z m114 -13 c-17 -19 -57 -27
-57 -12 0 5 9 7 19 5 11 -2 25 3 32 11 6 8 14 14 17 14 3 0 -2 -8 -11 -18z
m-87 -11 c0 -4 -6 -8 -14 -8 -8 0 -12 6 -9 14 5 13 23 9 23 -6z m150 15 c0 -2
-7 -7 -16 -10 -8 -3 -12 -2 -9 4 6 10 25 14 25 6z"/>
<path d="M1090 160 c0 -5 5 -12 11 -15 6 -4 8 -13 5 -21 -3 -8 0 -11 10 -7 17
6 19 23 3 23 -8 0 -8 4 -1 13 8 10 6 13 -9 14 -10 1 -19 -2 -19 -7z"/>
<path d="M1149 144 c-15 -19 -5 -28 33 -30 18 -1 25 1 18 6 -10 6 -10 8 0 12
7 2 1 9 -13 15 -21 10 -28 9 -38 -3z m27 -6 c4 -7 3 -8 -4 -4 -7 4 -12 2 -12
-5 0 -7 -3 -10 -6 -6 -6 5 3 27 11 27 2 0 7 -5 11 -12z"/>
<path d="M1055 3070 c-3 -5 -1 -10 4 -10 6 0 11 5 11 10 0 6 -2 10 -4 10 -3 0
-8 -4 -11 -10z"/>
<path d="M1013 3045 c0 -8 4 -12 9 -9 5 3 6 10 3 15 -9 13 -12 11 -12 -6z"/>
<path d="M1086 3046 c4 -12 4 -17 -2 -13 -6 3 -11 -4 -11 -15 -2 -20 -2 -20
14 1 12 17 13 25 4 34 -9 9 -10 7 -5 -7z"/>
<path d="M1019 2988 c-5 -18 -6 -38 -1 -34 7 8 12 36 6 36 -2 0 -4 -1 -5 -2z"/>
<path d="M1070 2985 c0 -2 6 -8 13 -14 10 -8 14 -7 14 2 0 8 -6 14 -14 14 -7
0 -13 -1 -13 -2z"/>
<path d="M1004 2933 c4 -4 16 -8 28 -10 28 -4 18 6 -12 12 -12 2 -20 1 -16 -2z"/>
<path d="M1086 2913 c-6 -14 -5 -15 5 -6 7 7 10 15 7 18 -3 3 -9 -2 -12 -12z"/>
<path d="M1019 2883 c-13 -16 -12 -17 4 -4 9 7 17 15 17 17 0 8 -8 3 -21 -13z"/>
<path d="M1090 2881 c0 -7 -4 -10 -8 -7 -4 2 -9 -5 -9 -16 -2 -21 -2 -21 14 1
8 12 12 25 9 28 -3 4 -6 1 -6 -6z"/>
<path d="M1034 2858 l-19 -23 23 19 c21 18 27 26 19 26 -2 0 -12 -10 -23 -22z"/>
<path d="M1019 2828 c-5 -18 -6 -38 -1 -34 7 8 12 36 6 36 -2 0 -4 -1 -5 -2z"/>
<path d="M1070 2825 c0 -2 6 -8 13 -14 10 -8 14 -7 14 2 0 8 -6 14 -14 14 -7
0 -13 -1 -13 -2z"/>
<path d="M1004 2773 c4 -4 16 -8 28 -10 28 -4 18 6 -12 12 -12 2 -20 1 -16 -2z"/>
<path d="M1086 2753 c-6 -14 -5 -15 5 -6 7 7 10 15 7 18 -3 3 -9 -2 -12 -12z"/>
<path d="M1059 2748 c-5 -18 -6 -38 -1 -34 7 8 12 36 6 36 -2 0 -4 -1 -5 -2z"/>
<path d="M1016 2683 c-6 -14 -5 -15 5 -6 7 7 10 15 7 18 -3 3 -9 -2 -12 -12z"/>
<path d="M1070 2693 c0 -3 6 -11 14 -19 13 -12 15 -12 13 4 -1 15 -27 29 -27
15z"/>
<path d="M1054 2650 c0 -13 4 -16 10 -10 7 7 7 13 0 20 -6 6 -10 3 -10 -10z"/>
<path d="M1070 2610 c0 -5 7 -7 15 -4 8 4 15 8 15 10 0 2 -7 4 -15 4 -8 0 -15
-4 -15 -10z"/>
<path d="M1054 2570 c0 -13 4 -16 10 -10 7 7 7 13 0 20 -6 6 -10 3 -10 -10z"/>
<path d="M910 2550 c0 -5 5 -10 11 -10 5 0 7 5 4 10 -3 6 -8 10 -11 10 -2 0
-4 -4 -4 -10z"/>
<path d="M1053 2523 c0 -9 4 -10 14 -2 7 6 13 12 13 14 0 1 -6 2 -13 2 -8 0
-14 -6 -14 -14z"/>
<path d="M934 2506 c1 -8 5 -18 8 -22 4 -3 5 1 4 10 -1 8 -5 18 -8 22 -4 3 -5
-1 -4 -10z"/>
<path d="M995 2510 c-3 -5 -1 -10 4 -10 6 0 11 5 11 10 0 6 -2 10 -4 10 -3 0
-8 -4 -11 -10z"/>
<path d="M1050 2491 c0 -6 4 -13 10 -16 6 -3 7 1 4 9 -7 18 -14 21 -14 7z"/>
<path d="M990 2470 c0 -5 5 -10 11 -10 5 0 7 5 4 10 -3 6 -8 10 -11 10 -2 0
-4 -4 -4 -10z"/>
<path d="M1064 2440 c0 -13 4 -16 10 -10 7 7 7 13 0 20 -6 6 -10 3 -10 -10z"/>
<path d="M1006 2408 c3 -5 10 -6 15 -3 13 9 11 12 -6 12 -8 0 -12 -4 -9 -9z"/>
<path d="M1035 2392 c3 -3 -3 -15 -12 -26 -14 -15 -14 -18 -2 -8 9 6 18 11 20
9 2 -1 3 0 2 2 -2 2 2 9 7 16 7 8 5 12 -5 12 -8 0 -13 -3 -10 -5z"/>
<path d="M1059 2348 c-5 -18 -6 -38 -1 -34 7 8 12 36 6 36 -2 0 -4 -1 -5 -2z"/>
<path d="M1080 2331 c0 -6 4 -13 10 -16 6 -3 7 1 4 9 -7 18 -14 21 -14 7z"/>
<path d="M1053 2283 c0 -9 4 -10 14 -2 7 6 13 12 13 14 0 1 -6 2 -13 2 -8 0
-14 -6 -14 -14z"/>
<path d="M1053 2243 c0 -9 4 -10 14 -2 7 6 13 12 13 14 0 1 -6 2 -13 2 -8 0
-14 -6 -14 -14z"/>
<path d="M1016 2203 c-6 -14 -5 -15 5 -6 7 7 10 15 7 18 -3 3 -9 -2 -12 -12z"/>
<path d="M1070 2213 c0 -3 6 -11 14 -19 13 -12 15 -12 13 4 -1 15 -27 29 -27
15z"/>
<path d="M1054 2170 c0 -13 4 -16 10 -10 7 7 7 13 0 20 -6 6 -10 3 -10 -10z"/>
<path d="M1070 2130 c0 -5 7 -7 15 -4 8 4 15 8 15 10 0 2 -7 4 -15 4 -8 0 -15
-4 -15 -10z"/>
<path d="M1090 2081 c0 -7 -4 -10 -8 -7 -4 2 -9 -5 -9 -16 -2 -21 -2 -21 14 1
8 12 12 25 9 28 -3 4 -6 1 -6 -6z"/>
<path d="M1040 2064 c-11 -12 -10 -18 5 -32 18 -16 18 -16 6 1 -11 14 -11 20
-1 32 7 8 10 15 7 15 -2 0 -10 -7 -17 -16z"/>
<path d="M1076 2018 c3 -5 10 -6 15 -3 13 9 11 12 -6 12 -8 0 -12 -4 -9 -9z"/>
<path d="M1068 1993 c7 -3 16 -2 19 1 4 3 -2 6 -13 5 -11 0 -14 -3 -6 -6z"/>
<path d="M426 1208 c3 -5 10 -6 15 -3 13 9 11 12 -6 12 -8 0 -12 -4 -9 -9z"/>
<path d="M466 1172 c-3 -5 1 -9 9 -9 8 0 12 4 9 9 -3 4 -7 8 -9 8 -2 0 -6 -4
-9 -8z"/>
<path d="M426 1148 c3 -5 10 -6 15 -3 13 9 11 12 -6 12 -8 0 -12 -4 -9 -9z"/>
<path d="M500 1141 c0 -6 4 -13 10 -16 6 -3 7 1 4 9 -7 18 -14 21 -14 7z"/>
<path d="M497 1015 c-4 -8 -3 -16 1 -19 4 -3 9 4 9 15 2 23 -3 25 -10 4z"/>
<path d="M497 895 c-4 -8 -3 -16 1 -19 4 -3 9 4 9 15 2 23 -3 25 -10 4z"/>
<path d="M460 816 c0 -2 8 -10 18 -17 15 -13 16 -12 3 4 -13 16 -21 21 -21 13z"/>
<path d="M596 778 c3 -5 1 -14 -5 -21 -7 -10 -4 -13 12 -14 12 0 16 1 10 4 -9
3 -10 10 -3 22 6 13 5 18 -5 18 -8 0 -12 -4 -9 -9z"/>
<path d="M657 784 c7 -3 9 -13 6 -22 -4 -14 -3 -14 5 -2 12 16 7 30 -11 29 -9
0 -9 -2 0 -5z"/>
<path d="M786 778 c3 -4 9 -8 15 -8 5 0 9 4 9 8 0 5 -7 9 -15 9 -8 0 -12 -4
-9 -9z"/>
<path d="M1064 771 c3 -16 12 -19 24 -5 4 4 1 4 -7 -1 -10 -6 -12 -4 -6 4 5
10 14 6 34 -13 20 -20 23 -29 13 -35 -8 -5 3 -8 28 -8 26 0 36 3 28 8 -7 5 -8
9 -3 9 6 0 2 7 -8 14 -12 9 -14 16 -8 21 25 15 8 24 -43 24 -44 -1 -53 -4 -52
-18z m80 -8 c-17 -13 -34 -9 -34 7 0 6 12 9 26 8 23 -2 23 -4 8 -15z m26 -28
c0 -2 -6 -5 -13 -8 -8 -3 -14 1 -14 8 0 7 6 11 14 8 7 -3 13 -6 13 -8z"/>
<path d="M479 763 c-13 -16 -12 -17 4 -4 9 7 17 15 17 17 0 8 -8 3 -21 -13z"/>
<path d="M547 749 c7 -7 15 -10 18 -7 3 3 -2 9 -12 12 -14 6 -15 5 -6 -5z"/>
<path d="M710 748 c0 -6 7 -7 16 -4 12 5 14 1 9 -17 -5 -20 -5 -20 5 -4 7 10
9 21 6 25 -11 10 -36 11 -36 0z"/>
<path d="M515 741 c-3 -5 -2 -12 3 -15 5 -3 9 1 9 9 0 17 -3 19 -12 6z"/>
<path d="M676 728 c3 -4 9 -8 15 -8 5 0 9 4 9 8 0 5 -7 9 -15 9 -8 0 -12 -4
-9 -9z"/>
<path d="M655 723 c3 -3 0 -11 -5 -18 -7 -8 -5 -12 4 -12 14 0 16 22 3 32 -4
3 -5 2 -2 -2z"/>
<path d="M605 709 c-4 -6 -5 -12 -2 -15 2 -3 7 2 10 11 7 17 1 20 -8 4z"/>
<path d="M707 707 c-3 -8 1 -14 8 -14 7 0 11 6 8 14 -3 7 -6 13 -8 13 -2 0 -5
-6 -8 -13z"/>
<path d="M475 181 c-3 -5 -2 -12 3 -15 5 -3 9 1 9 9 0 17 -3 19 -12 6z"/>
<path d="M597 173 c3 -7 6 -13 8 -13 2 0 5 6 8 13 3 8 -1 14 -8 14 -7 0 -11
-6 -8 -14z"/>
<path d="M633 175 c0 -8 4 -15 9 -15 4 0 8 4 8 9 0 6 -4 12 -8 15 -5 3 -9 -1
-9 -9z"/>
<path d="M666 182 c5 -4 12 -11 15 -15 3 -5 9 -2 12 5 3 9 -3 14 -15 15 -11 1
-16 -1 -12 -5z"/>
<path d="M667 143 c5 -12 3 -14 -8 -8 -8 5 -11 4 -6 0 4 -5 14 -10 22 -11 12
-2 12 2 5 17 -13 23 -22 25 -13 2z"/>
<path d="M595 140 c-4 -6 -10 -8 -14 -6 -4 3 -7 -6 -7 -19 0 -13 4 -21 8 -19
5 3 6 9 3 14 -3 5 5 16 17 24 12 9 17 16 11 16 -7 0 -15 -5 -18 -10z"/>
<path d="M710 140 c0 -5 5 -10 10 -10 6 0 10 5 10 10 0 6 -4 10 -10 10 -5 0
-10 -4 -10 -10z"/>
<path d="M514 132 c4 -3 14 -7 22 -8 9 -1 13 0 10 4 -4 3 -14 7 -22 8 -9 1
-13 0 -10 -4z"/>
<path d="M756 123 c10 -7 23 -13 28 -12 6 0 5 3 -2 6 -6 2 -10 8 -8 12 3 4 -4
7 -15 7 -19 0 -19 -1 -3 -13z"/>
<path d="M494 108 c-4 -7 -4 -10 1 -6 4 4 15 2 24 -5 14 -11 14 -10 2 6 -16
20 -18 21 -27 5z"/>
<path d="M605 109 c-4 -6 -5 -12 -2 -15 2 -3 7 2 10 11 7 17 1 20 -8 4z"/>
<path d="M697 113 c-4 -3 -7 -11 -7 -17 0 -6 5 -5 12 2 6 6 9 14 7 17 -3 3 -9
2 -12 -2z"/>
<path d="M733 113 c4 -6 1 -13 -5 -16 -7 -2 0 -4 15 -4 15 0 27 0 25 1 -2 1
-12 8 -22 16 -11 8 -17 10 -13 3z"/>
<path d="M650 100 c-12 -7 -10 -9 7 -7 12 0 19 5 17 9 -6 10 -6 10 -24 -2z"/>
</g>
</svg>
